<svg xmlns="http://www.w3.org/2000/svg" width="960" height="540" viewBox="0 0 960 540" role="img" aria-label="Master Prompt structured output preview">
  <defs>
    <linearGradient id="bg2" x1="0" y1="0" x2="1" y2="1">
      <stop offset="0%" stop-color="#0a0a0a"/>
      <stop offset="100%" stop-color="#111827"/>
    </linearGradient>
  </defs>
  <rect width="960" height="540" fill="url(#bg2)"/>
  <rect x="48" y="48" width="864" height="444" rx="18" fill="#171717" stroke="#262626"/>
  <text x="80" y="92" fill="#fafafa" font-family="system-ui,sans-serif" font-size="20" font-weight="700">Output</text>
  <rect x="720" y="72" width="88" height="28" rx="8" fill="#22c55e" fill-opacity="0.15" stroke="#22c55e"/>
  <text x="736" y="91" fill="#22c55e" font-family="system-ui,sans-serif" font-size="12" font-weight="700">Score 92/100</text>
  <rect x="80" y="112" width="120" height="28" rx="8" fill="#262626"/>
  <text x="98" y="131" fill="#fafafa" font-family="system-ui,sans-serif" font-size="12">Structured</text>
  <rect x="80" y="156" width="800" height="280" rx="12" fill="#0a0a0a" stroke="#404040"/>
  <text x="104" y="188" fill="#22c55e" font-family="ui-monospace,monospace" font-size="13" font-weight="700">## ROLE</text>
  <text x="104" y="214" fill="#d4d4d4" font-family="ui-monospace,monospace" font-size="12">You are a YouTube channel strategist operating as a state machine.</text>
  <text x="104" y="246" fill="#22c55e" font-family="ui-monospace,monospace" font-size="13" font-weight="700">## STATES</text>
  <text x="104" y="272" fill="#d4d4d4" font-family="ui-monospace,monospace" font-size="12">STATE 1  DISCOVERY: clarify niche, audience, and goals.</text>
  <text x="104" y="294" fill="#d4d4d4" font-family="ui-monospace,monospace" font-size="12">STATE 2  CONTENT PLAN: outline series and upload cadence.</text>
  <text x="104" y="316" fill="#d4d4d4" font-family="ui-monospace,monospace" font-size="12">STATE 3  SCRIPT: draft hooks, retention beats, and CTA.</text>
  <rect x="80" y="452" width="110" height="28" rx="8" fill="#171717" stroke="#404040"/>
  <text x="98" y="471" fill="#a3a3a3" font-family="system-ui,sans-serif" font-size="12">Export .md</text>
  <rect x="200" y="452" width="110" height="28" rx="8" fill="#171717" stroke="#404040"/>
  <text x="218" y="471" fill="#a3a3a3" font-family="system-ui,sans-serif" font-size="12">Share link</text>
  <rect x="320" y="452" width="110" height="28" rx="8" fill="#171717" stroke="#404040"/>
  <text x="338" y="471" fill="#a3a3a3" font-family="system-ui,sans-serif" font-size="12">Refine</text>
</svg>
